<?xml version="1.0" standalone="no"?>
<!DOCTYPE svg PUBLIC "-//W3C//DTD SVG 20010904//EN"
 "http://www.w3.org/TR/2001/REC-SVG-20010904/DTD/svg10.dtd">
<svg version="1.0" xmlns="http://www.w3.org/2000/svg"
 width="120" height="120" viewBox="0 0 471.000000 265.000000"
 preserveAspectRatio="xMidYMid meet">
<metadata>
Created by potrace 1.16, written by Peter Selinger 2001-2019
</metadata>
<g transform="translate(0.000000,265.000000) scale(0.100000,-0.100000)"
fill="#000000" stroke="none">
<path d="M110 2018 c-68 -47 -70 -57 -70 -401 0 -285 1 -311 19 -346 22 -42
56 -69 101 -78 l30 -5 0 -87 c1 -145 48 -211 153 -211 43 0 50 -3 65 -31 30
-54 53 -79 93 -99 45 -24 125 -26 172 -6 39 17 92 71 106 109 l11 27 130 0
130 0 19 -37 c40 -79 97 -113 186 -113 69 0 140 45 170 108 20 41 21 42 71 42
62 0 111 29 136 80 15 29 18 63 18 212 0 97 -5 189 -10 205 -6 15 -61 103
-122 194 -138 208 -139 209 -301 209 l-114 0 -5 73 c-5 79 -23 119 -66 152
-26 19 -45 20 -458 23 l-430 3 -34 -23z m874 -100 c14 -19 16 -65 16 -303 0
-238 -2 -284 -16 -303 l-15 -22 -399 0 c-349 0 -401 2 -414 16 -14 13 -16 55
-16 305 0 181 4 298 10 310 10 18 26 19 415 19 l404 0 15 -22z m353 -250 c11
-13 64 -88 117 -168 l96 -145 0 -166 c0 -184 -3 -194 -61 -204 -35 -6 -37 -5
-63 39 -63 108 -187 142 -286 79 -32 -20 -80 -79 -80 -99 0 -20 -26 -24 -150
-24 l-118 0 -22 46 c-71 145 -277 142 -358 -6 -17 -32 -23 -35 -58 -33 -54 4
-64 22 -64 120 l0 83 349 0 c344 0 348 0 381 23 72 49 75 57 78 278 l4 199
107 0 c99 0 109 -2 128 -22z m-714 -637 c70 -27 89 -106 39 -162 -30 -34 -79
-42 -121 -20 -22 12 -51 60 -51 86 0 28 29 74 58 89 32 18 43 19 75 7z m667
-6 c30 -16 60 -61 60 -90 0 -26 -29 -74 -51 -86 -42 -22 -91 -14 -121 20 -44
49 -34 120 20 154 34 21 55 21 92 2z"/>
<path d="M1166 1624 c-13 -13 -16 -45 -16 -189 0 -162 1 -175 19 -185 11 -5
71 -10 134 -10 135 0 147 7 147 85 0 45 -7 60 -82 173 -45 68 -90 127 -99 133
-27 14 -86 11 -103 -7z m159 -146 c60 -91 75 -120 75 -150 l0 -38 -100 0 -100
0 0 150 0 150 25 0 c20 0 38 -19 100 -112z"/>
<path d="M2286 1304 c-3 -9 -6 -105 -6 -214 0 -168 2 -200 16 -211 11 -9 20
-10 32 -2 14 8 18 29 20 106 3 93 4 97 33 121 34 29 66 33 94 13 15 -12 19
-33 24 -128 5 -102 8 -114 25 -117 33 -7 46 25 46 112 0 150 -32 206 -118 206
-27 0 -57 -6 -68 -15 -10 -8 -22 -15 -26 -15 -5 0 -8 31 -8 68 0 40 -5 73 -12
80 -17 17 -45 15 -52 -4z"/>
<path d="M4357 1313 c-4 -3 -7 -102 -7 -220 0 -189 2 -214 16 -220 29 -11 49
11 52 58 3 39 24 79 41 79 3 0 26 -29 51 -65 48 -68 72 -84 95 -65 23 19 19
28 -39 105 l-54 72 44 44 c29 28 44 51 42 64 -6 38 -38 28 -109 -35 l-69 -62
0 114 c0 75 -4 118 -12 126 -13 13 -41 16 -51 5z"/>
<path d="M1986 1299 c-86 -20 -127 -83 -103 -157 14 -43 49 -65 142 -92 37
-11 73 -24 81 -31 22 -18 17 -57 -8 -71 -29 -15 -113 -15 -162 2 -33 11 -40
10 -54 -4 -38 -38 30 -74 141 -75 105 -1 167 43 167 120 0 59 -36 94 -123 119
-120 35 -141 52 -112 96 20 30 75 40 145 26 48 -11 57 -10 67 4 8 11 9 23 3
34 -9 17 -24 21 -120 35 -14 2 -42 -1 -64 -6z"/>
<path d="M3420 1300 c-106 -20 -170 -103 -170 -219 1 -112 76 -199 182 -209
46 -4 59 -10 99 -48 30 -30 51 -43 61 -39 29 11 28 34 -1 67 l-29 32 44 39
c93 82 95 236 4 324 -46 45 -122 66 -190 53z m125 -84 c36 -24 59 -74 59 -131
1 -94 -58 -151 -151 -149 -147 3 -186 218 -53 287 41 21 107 18 145 -7z"/>
<path d="M2681 1171 c-6 -11 -11 -75 -11 -143 0 -132 9 -163 46 -156 18 3 19
13 19 158 0 152 0 155 -22 158 -14 2 -26 -4 -32 -17z"/>
<path d="M2867 1183 c-13 -12 -8 -428 5 -441 16 -16 23 -15 42 4 11 11 16 35
16 81 0 58 2 64 18 57 9 -4 40 -9 67 -11 63 -5 106 20 135 76 56 110 -13 241
-127 241 -23 0 -54 -5 -68 -12 -19 -9 -28 -9 -37 0 -13 13 -41 16 -51 5z m211
-89 c47 -53 16 -147 -53 -159 -20 -4 -41 1 -62 14 -32 20 -33 23 -33 85 0 62
1 64 33 80 41 21 85 13 115 -20z"/>
<path d="M3774 1176 c-3 -8 -4 -67 -2 -131 l3 -117 33 -29 c37 -33 98 -39 142
-14 22 12 27 11 42 -2 9 -8 25 -13 35 -11 16 3 18 17 21 156 2 134 1 153 -14
159 -38 14 -49 -9 -54 -117 l-5 -102 -37 -22 c-35 -19 -40 -20 -65 -6 -27 15
-28 18 -31 120 -1 57 -8 110 -14 117 -14 17 -47 17 -54 -1z"/>
<path d="M4174 1177 c-2 -7 -3 -78 -2 -157 3 -134 4 -145 22 -148 37 -7 46 24
46 156 0 68 -5 132 -10 143 -12 22 -48 26 -56 6z"/>
</g>
</svg>
