<?xml version="1.0" encoding="utf-8"?>
<!-- Generator: Adobe Illustrator 21.0.2, SVG Export Plug-In . SVG Version: 6.00 Build 0)  -->
<svg version="1.1" id="Layer_1" xmlns="http://www.w3.org/2000/svg" xmlns:xlink="http://www.w3.org/1999/xlink" x="0px" y="0px"
	 viewBox="0 0 100 100" style="enable-background:new 0 0 100 100;" xml:space="preserve">
<path d="M25.7,46H7.6c-1.1,0-2-0.9-2-2c0-1.1,0.9-2,2-2h18.1c1.1,0,2,0.9,2,2C27.7,45.1,26.8,46,25.7,46z M93.3,68.6
	c-1.1,1.6-2.9,2.5-4.9,2.5h-3.3c-0.5,5.1-4.8,9-10,9c-5.2,0-9.5-4-10-9H44.9c-0.5,5.1-4.8,9-10,9c-5.2,0-9.5-4-10-9h-5.4
	c-2.2,0-3.9-1.8-3.9-3.9V49.8c0-1.1,0.9-2,2-2h0c1.1,0,2,0.9,2,2v17.3h5.8c1.3-4.1,5.1-7,9.6-7c4.5,0,8.3,3,9.6,7h15.3V23.9H19.6
	v4.8c0,1.1-0.9,2-2,2h0c-1.1,0-2-0.9-2-2v-4.8c0-2.2,1.8-3.9,3.9-3.9h40.4c2.2,0,3.9,1.8,3.9,3.9v5.1h21.5c3.1,0,5.7,2.3,6,5.4
	L94,55v7.7l0.2,0.5C94.7,65,94.4,67,93.3,68.6z M41,70.1c0-3.3-2.7-6-6-6s-6,2.7-6,6c0,3.3,2.7,6,6,6S41,73.4,41,70.1z M72.9,47
	c0,1.1,0.9,2,2,2h14.3l-1.8-14.2c-0.1-1-1-1.8-2.1-1.8H72.9V47z M81.2,70.1c0-3.3-2.7-6-6-6c-3.3,0-6,2.7-6,6c0,3.3,2.7,6,6,6
	C78.5,76.1,81.2,73.4,81.2,70.1z M90.3,64.5L90,63.4V60h-2.4c-1.1,0-2-0.9-2-2c0-1.1,0.9-2,2-2H90v-0.9L89.7,53H74.9
	c-3.3,0-6-2.7-6-6V32.9h-5v34.2h1.7c1.3-4.1,5.1-7,9.6-7c4.5,0,8.3,3,9.6,7h3.7c0.6,0,1.2-0.3,1.6-0.8
	C90.4,65.7,90.5,65.1,90.3,64.5z M11.6,37.9h20.1c1.1,0,2-0.9,2-2c0-1.1-0.9-2-2-2H11.6c-1.1,0-2,0.9-2,2
	C9.6,37,10.5,37.9,11.6,37.9z M76.2,68.4c-0.1-0.1-0.2-0.1-0.3-0.2s-0.2-0.1-0.4-0.1c-0.7-0.1-1.3,0.1-1.8,0.5
	c-0.4,0.4-0.6,0.9-0.6,1.4c0,0.1,0,0.3,0,0.4c0,0.1,0.1,0.3,0.1,0.4c0,0.1,0.1,0.2,0.2,0.4c0.1,0.1,0.2,0.2,0.2,0.3
	c0.2,0.2,0.4,0.3,0.6,0.4c0.2,0.1,0.5,0.1,0.8,0.1c0.3,0,0.5,0,0.8-0.1c0.2-0.1,0.5-0.2,0.6-0.4c0.1-0.1,0.2-0.2,0.2-0.3
	c0.1-0.1,0.1-0.2,0.2-0.4c0-0.1,0.1-0.2,0.1-0.4c0-0.1,0-0.3,0-0.4c0-0.5-0.2-1-0.6-1.4C76.4,68.6,76.3,68.5,76.2,68.4z M33.5,68.7
	c-0.4,0.4-0.6,0.9-0.6,1.4c0,0.5,0.2,1,0.6,1.4c0.4,0.4,0.9,0.6,1.4,0.6c0.3,0,0.5,0,0.8-0.1c0.2-0.1,0.5-0.2,0.6-0.4
	c0.4-0.4,0.6-0.9,0.6-1.4c0-0.5-0.2-1-0.6-1.4C35.6,67.9,34.3,67.9,33.5,68.7z M30.3,42.6c-0.1,0.1-0.2,0.2-0.2,0.3
	c-0.1,0.1-0.1,0.2-0.2,0.3s-0.1,0.2-0.1,0.4c0,0.1,0,0.3,0,0.4s0,0.3,0,0.4c0,0.1,0.1,0.3,0.1,0.4s0.1,0.2,0.2,0.3
	c0.1,0.1,0.1,0.2,0.2,0.3c0.4,0.4,0.9,0.6,1.4,0.6c0.5,0,1-0.2,1.4-0.6c0.1-0.1,0.2-0.2,0.2-0.3c0.1-0.1,0.1-0.2,0.2-0.3
	c0-0.1,0.1-0.2,0.1-0.4c0-0.1,0-0.3,0-0.4c0-0.5-0.2-1-0.6-1.4C32.4,41.8,31,41.8,30.3,42.6z"/>
</svg>
